<?xml version="1.0" encoding="iso-8859-1"?>
<svg xmlns="http://www.w3.org/2000/svg" xmlns:xlink="http://www.w3.org/1999/xlink" version="1.1" id="Layer_1" x="0px" y="0px" viewBox="0 0 512 512" style="enable-background:new 0 0 512 512;" xml:space="preserve" width="512px" height="512px">
<g>
	<g>
		<path d="M155.662,0.596c-23.476,0-42.506,19.031-42.506,42.506c0,19.799,13.536,36.435,31.858,41.162l10.147-63.461    c1.144-7.152,4.125-13.833,8.573-19.432C161.12,0.869,158.423,0.596,155.662,0.596z" fill="#933EC5"/>
	</g>
</g>
<g>
	<g>
		<path d="M392.921,68.308l-74.51-18.11l1.153-3.84c1.797-5.983-1.595-12.29-7.579-14.088c-5.985-1.796-12.291,1.595-14.088,7.579    l-1.502,4.998l-19.341-4.701c-6.074-1.477-12.189,2.25-13.664,8.32c-1.475,6.071,2.25,12.188,8.32,13.664l18.165,4.416    c-16.948,56.419-1.398,4.655-16.074,53.511c-1.089,0.396-2.164,0.864-3.205,1.458l-72.553,41.316l-51.407-28.57l17.128,4.574    c-5.122-2.915-9.611-6.91-13.171-11.826c-5.633-7.779-8.366-17.042-7.909-26.498l-32.968-2.71    c-17.123-1.407-32.144,11.332-33.551,28.455L65.812,271.223c-0.676,9.464-0.291,18.974,1.147,28.354l10.002,65.213L45.198,480.651    c-3.62,13.203,4.148,26.841,17.352,30.461c13.191,3.619,26.84-4.142,30.461-17.352l33.161-120.953    c0.921-3.357,1.124-6.871,0.596-10.313l-11.174-72.854l10.882,0.895l28.693,78.231l7.82,120.051    c0.854,13.114,11.756,23.179,24.712,23.178c14.391,0,25.689-12.144,24.761-26.401l-8.053-123.618    c-0.154-2.367-0.647-4.699-1.464-6.924l-22.464-61.248l5.69-69.224l-59.605-54.208l61.566,34.216    c6.302,3.502,13.981,3.469,20.257-0.106l48.814-27.798c-0.156,4.997,3.027,9.674,8.042,11.18c1.085,0.326,2.181,0.481,3.258,0.481    c4.864,0,9.357-3.163,10.829-8.061l5.872-19.547l5.838-3.324c9.914-5.646,13.374-18.259,7.729-28.172    c-0.83-1.457-1.825-2.757-2.925-3.927c3.354-11.166,9.073-30.203,16.047-53.42l75.686,18.396    c6.069,1.475,12.186-2.251,13.662-8.321C402.716,75.9,398.991,69.784,392.921,68.308z" fill="#933EC5"/>
	</g>
</g>
<g>
	<g>
		<path d="M393.481,5.378c-1.353-4.105-5.779-6.336-9.885-4.982c-4.105,1.355-6.336,5.779-4.982,9.885l15.882,48.153    C393.821,3.321,394.023,7.019,393.481,5.378z" fill="#933EC5"/>
	</g>
</g>
<g>
	<g>
		<path d="M423.559,11.368c-5.072-0.345-9.464,3.487-9.81,8.559l-3.385,49.718l20.923-45.228    C434.005,18.491,429.94,11.802,423.559,11.368z" fill="#933EC5"/>
	</g>
</g>
<g>
	<g>
		<path d="M465.7,47.249c-3.157-3.986-8.946-4.657-12.931-1.5L413.705,76.69l47.539-14.944    C467.455,59.771,469.672,52.263,465.7,47.249z" fill="#933EC5"/>
	</g>
</g>
<g>
	<g>
		<path d="M458.108,96.456l-49.452-6.15l43.991,23.411c5.765,3.041,12.67-0.643,13.459-6.99    C466.734,101.682,463.153,97.083,458.108,96.456z" fill="#933EC5"/>
	</g>
</g>
<g>
	<g>
		<path d="M426.785,153.782l-26.88-54.831l9.622,60.303c1.013,6.145,7.589,9.462,13.068,6.776    C427.135,163.804,429.011,158.321,426.785,153.782z" fill="#933EC5"/>
	</g>
</g>
<g>
	<g>
		<path d="M221.361,6.182l-20.937-3.347c-13.57-2.17-26.338,7.071-28.51,20.649l-12,75.043c-2.17,13.574,7.076,26.337,20.651,28.508    c0.581,0.094,21.067,3.405,21.656,3.405c2.184,0,4.107-1.585,4.462-3.811l9.215-57.633l-24.992-3.996l4.905-30.672l24.992,3.996    l4.311-26.961C225.51,8.897,223.83,6.576,221.361,6.182z" fill="#933EC5"/>
	</g>
</g>
<g>
</g>
<g>
</g>
<g>
</g>
<g>
</g>
<g>
</g>
<g>
</g>
<g>
</g>
<g>
</g>
<g>
</g>
<g>
</g>
<g>
</g>
<g>
</g>
<g>
</g>
<g>
</g>
<g>
</g>
</svg>
